<svg xmlns="http://www.w3.org/2000/svg" width="653.35" height="217.87" viewBox="56.50 303.42 653.35 217.87"><path fill="rgb(126,191,177)" d="M 267.55 503.73 C263.62,505.72 260.65,506.36 254.01,506.65 C239.27,507.29 228.98,503.66 190.37,484.24 L 163.15 470.55 L 155.33 478.53 C136.53,497.68 119.56,505.73 100.00,504.78 C82.23,503.92 70.63,493.95 70.56,479.50 C70.50,465.14 84.18,451.43 103.46,446.52 C116.53,443.19 136.04,444.94 154.84,451.13 C158.36,452.29 161.55,452.84 162.01,452.36 C163.61,450.70 174.19,431.77 176.95,425.61 C181.53,415.41 181.58,415.00 178.32,414.98 C173.28,414.95 162.11,412.16 155.93,409.39 C147.63,405.66 145.20,401.85 148.36,397.52 C149.66,395.74 150.03,395.85 155.96,399.82 C162.96,404.49 169.62,406.80 178.56,407.67 L 184.61 408.25 L 189.21 396.88 C191.73,390.62 194.82,382.80 196.07,379.50 C199.15,371.34 207.35,354.99 212.18,347.34 C217.12,339.51 228.49,328.86 235.40,325.59 C252.68,317.42 267.94,324.87 267.96,341.50 C268.00,370.01 238.92,402.30 204.39,412.10 L 196.27 414.40 L 193.50 420.95 C189.95,429.31 182.87,442.59 177.30,451.29 L 172.97 458.07 L 175.73 459.54 C177.25,460.35 190.45,467.04 205.06,474.40 C236.11,490.05 247.62,494.28 259.50,494.41 C267.65,494.50 269.30,493.95 278.70,487.98 C279.92,487.21 281.20,486.86 281.55,487.21 C283.88,489.54 275.09,499.91 267.55,503.73 ZM 312.42 477.39 C311.55,477.73 305.92,478.00 299.92,478.00 C291.79,478.00 289.00,477.68 289.00,476.74 C289.00,476.04 290.01,475.03 291.25,474.49 C294.47,473.07 295.80,469.60 298.59,455.34 C303.10,432.26 302.93,429.17 297.07,428.73 C295.92,428.64 295.12,428.14 295.30,427.61 C295.76,426.23 310.74,420.00 313.60,420.00 C315.73,420.00 316.00,420.44 316.00,423.98 L 316.00 427.96 L 322.33 424.48 C330.59,419.94 338.18,419.60 342.87,423.54 C344.53,424.94 346.18,426.98 346.52,428.08 C347.12,429.96 347.35,429.90 350.59,427.05 C356.21,422.12 359.96,420.61 366.67,420.55 C374.16,420.49 377.81,422.73 379.91,428.67 C381.21,432.34 381.06,434.14 378.09,450.81 C376.31,460.79 375.00,469.98 375.18,471.23 C375.35,472.48 376.51,473.94 377.75,474.49 C382.27,476.47 379.22,477.50 368.00,477.78 C355.78,478.09 352.85,477.17 357.85,474.58 C361.20,472.85 361.47,472.15 364.97,456.00 C369.71,434.13 368.80,428.00 360.82,428.00 C356.00,428.00 350.90,431.36 348.41,436.18 C346.64,439.59 342.03,463.40 342.01,469.19 C342.00,471.82 342.61,473.31 344.11,474.36 C347.95,477.06 345.33,478.00 334.00,478.00 C328.01,478.00 322.90,477.64 322.62,477.20 C322.35,476.76 323.61,475.22 325.41,473.78 C328.97,470.94 329.57,468.92 332.51,450.00 C335.27,432.28 334.23,428.00 327.15,428.00 C323.11,428.00 316.50,432.32 315.17,435.82 C313.17,441.08 308.70,468.68 309.40,471.45 C309.78,472.97 310.97,474.44 312.05,474.72 C314.41,475.34 314.58,476.56 312.42,477.39 ZM 94.94 497.64 C100.91,499.24 102.23,499.23 110.30,497.52 C121.44,495.16 130.07,489.89 141.74,478.31 C147.38,472.70 152.00,467.68 152.00,467.14 C152.00,466.60 149.19,465.24 145.75,464.11 C123.09,456.65 105.44,457.24 90.31,465.97 C82.76,470.34 79.50,475.04 79.50,481.60 C79.50,489.74 84.36,494.78 94.94,497.64 ZM 200.00 405.67 C200.00,407.94 219.73,398.55 227.92,392.40 C238.66,384.32 250.14,368.86 254.56,356.50 C257.07,349.48 257.09,338.86 254.60,336.10 C251.84,333.06 247.22,333.42 241.64,337.11 C232.89,342.91 222.39,358.91 208.64,387.40 C203.89,397.25 200.00,405.47 200.00,405.67 ZM 458.89 475.07 C447.98,482.07 436.00,478.48 436.00,468.21 C436.00,461.13 444.90,454.06 459.81,449.31 C469.22,446.32 469.63,445.81 470.67,435.89 C471.43,428.61 469.54,425.00 464.98,425.00 C461.37,425.00 458.72,427.48 455.89,433.52 C452.64,440.43 448.00,442.86 444.57,439.43 C441.67,436.53 442.66,432.96 447.64,428.32 C453.15,423.18 459.52,421.00 468.93,421.00 C476.59,421.01 481.56,423.40 482.61,427.58 C483.47,431.03 482.48,442.50 480.47,452.18 C479.60,456.40 479.02,462.02 479.19,464.68 C479.50,469.50 479.50,469.50 483.00,469.34 L 486.50 469.18 L 482.18 473.03 C476.40,478.20 471.77,479.73 468.46,477.57 C467.11,476.68 466.00,475.32 466.00,474.54 C466.00,471.73 463.84,471.89 458.89,475.07 ZM 256.78 477.45 C246.79,481.62 236.66,476.33 235.31,466.24 C234.97,463.72 235.79,457.00 237.45,448.65 C240.71,432.32 240.60,429.63 236.69,429.18 C235.15,429.00 234.04,428.39 234.23,427.82 C234.64,426.58 250.60,420.00 253.19,420.00 C253.32,420.00 253.44,420.00 253.56,419.99 C253.98,419.99 254.30,419.98 254.51,420.13 C255.15,420.57 254.80,422.43 253.39,429.89 C253.27,430.55 253.14,431.25 252.99,432.00 C248.30,457.00 247.66,462.52 249.13,465.57 C249.88,467.14 251.69,469.10 253.15,469.91 C255.54,471.25 256.20,471.21 259.96,469.52 C266.33,466.65 267.54,464.10 270.59,447.25 C272.84,434.78 273.10,431.82 272.04,430.55 C271.33,429.70 270.14,429.00 269.38,429.00 C266.31,429.00 268.42,427.33 275.27,424.36 C285.11,420.08 287.00,419.57 287.02,421.18 C287.03,421.91 285.38,432.49 283.35,444.70 C279.27,469.26 279.37,470.48 285.24,469.30 C289.61,468.43 288.13,470.31 280.65,475.14 C273.00,480.09 270.23,479.99 267.63,474.68 L 265.76 470.85 L 263.13 473.37 C261.68,474.76 258.83,476.59 256.78,477.45 ZM 421.57 455.54 C415.05,466.52 408.90,476.37 407.90,477.43 C407.29,478.08 406.94,478.77 406.56,478.79 C405.69,478.83 404.64,475.31 399.92,459.48 C399.21,457.10 398.42,454.46 397.54,451.50 C391.15,430.13 389.67,426.18 387.32,424.29 C385.81,423.08 384.87,421.80 385.23,421.44 C385.58,421.09 391.64,421.18 398.69,421.66 L 411.50 422.53 L 408.25 424.29 C406.46,425.26 405.00,426.85 405.00,427.82 C405.00,428.79 406.15,433.62 407.55,438.54 C408.95,443.47 410.77,449.88 411.59,452.79 C412.41,455.69 413.47,457.83 413.94,457.54 C414.42,457.24 417.60,452.39 421.03,446.75 C434.00,425.38 440.48,416.38 448.93,408.00 C459.99,397.03 465.92,393.79 475.96,393.22 C482.57,392.84 483.84,393.06 486.25,394.97 C488.49,396.74 489.00,397.95 489.00,401.46 C489.00,404.15 488.31,406.63 487.18,408.02 L 485.36 410.27 L 482.73 407.64 C476.83,401.74 461.27,405.47 450.26,415.42 C442.54,422.41 434.83,433.19 421.57,455.54 ZM 552.12 475.98 C543.44,480.32 531.93,479.16 525.79,473.32 C520.70,468.49 518.69,463.39 518.59,455.00 C518.51,448.55 518.94,446.57 521.65,440.85 C527.69,428.10 538.14,420.89 550.79,420.73 C562.79,420.58 568.51,425.81 567.66,436.18 C567.41,439.31 566.90,442.34 566.54,442.93 C566.12,443.62 559.89,444.00 549.00,444.00 L 532.12 444.00 L 531.46 448.42 C530.07,457.71 533.45,465.95 540.02,469.25 C546.53,472.52 554.90,470.93 560.05,465.44 C562.54,462.80 565.00,462.22 565.00,464.29 C565.00,466.28 557.01,473.54 552.12,475.98 ZM 510.00 476.50 C509.03,477.66 506.33,478.00 497.94,478.00 C491.99,478.00 486.88,477.61 486.58,477.13 C486.29,476.66 487.00,475.42 488.16,474.38 C492.01,470.96 492.30,469.75 500.56,424.00 C501.41,419.33 502.79,412.56 503.63,408.98 C504.47,405.39 505.01,400.89 504.83,398.98 C504.53,395.87 504.16,395.47 501.25,395.19 C499.46,395.01 498.00,394.43 498.00,393.88 C498.00,392.08 518.45,384.11 519.74,385.41 C520.38,386.05 518.33,398.31 512.52,428.50 C504.83,468.43 504.64,469.80 506.43,472.54 C507.32,473.89 508.77,475.00 509.65,475.00 C510.95,475.00 511.02,475.27 510.00,476.50 ZM 451.20 469.80 C454.51,473.11 463.84,469.29 465.62,463.89 C467.65,457.74 468.28,451.00 466.81,451.01 C464.41,451.03 455.04,455.87 452.50,458.41 C449.75,461.16 449.02,467.62 451.20,469.80 ZM 534.00 437.95 C534.00,438.62 537.84,439.00 544.50,439.00 L 555.00 439.00 L 555.00 433.83 C555.00,427.32 553.13,425.00 547.88,425.00 C545.03,425.00 543.16,425.80 540.48,428.15 C537.03,431.18 534.00,435.76 534.00,437.95 Z"/><rect x="582" y="420" width="113.85" height="60" rx="11" fill="rgb(214,40,40)"/><g transform="translate(597.00,463.16) scale(0.01855,-0.01855)"><path fill="rgb(255,255,255)" d="M1399 1064Q1399 944 1349.5 857.5Q1300 771 1213 717Q1123 661 1007.5 636.0Q892 611 748 611H632V212Q632 176 645.5 149.5Q659 123 697 107Q717 99 762.0 90.0Q807 81 838 78V0H69V78Q98 81 146.0 86.5Q194 92 213 100Q252 116 264.5 139.0Q277 162 277 203V1204Q277 1239 265.0 1264.5Q253 1290 213 1307Q185 1319 138.5 1328.5Q92 1338 69 1341V1419H852Q1127 1419 1263.0 1331.5Q1399 1244 1399 1064ZM1009 1013Q1009 1173 944.5 1250.5Q880 1328 715 1328H632V705H674Q838 705 923.5 780.5Q1009 856 1009 1013Z M2783 1273Q2913 1188 2993.0 1046.5Q3073 905 3073 700Q3073 520 3001.5 386.5Q2930 253 2812 168Q2692 83 2539.5 41.5Q2387 0 2220 0H1505V78Q1537 79 1585.0 84.0Q1633 89 1649 96Q1685 111 1699.0 136.5Q1713 162 1713 198V1204Q1713 1238 1700.0 1265.5Q1687 1293 1649 1310Q1611 1327 1568.5 1333.0Q1526 1339 1503 1341V1419H2258Q2379 1419 2517.0 1388.0Q2655 1357 2783 1273ZM2579 256Q2628 336 2650.5 446.5Q2673 557 2673 701Q2673 842 2643.0 958.0Q2613 1074 2555 1156Q2497 1238 2410.5 1283.0Q2324 1328 2214 1328Q2179 1328 2134.5 1326.5Q2090 1325 2068 1324V247Q2068 211 2077.5 183.5Q2087 156 2110 135Q2133 114 2166.5 102.5Q2200 91 2254 91Q2367 91 2448.0 133.0Q2529 175 2579 256Z M4488 1040H4411Q4382 1123 4308.5 1216.5Q4235 1310 4169 1319Q4139 1323 4089.0 1326.0Q4039 1329 3997 1329H3776V772H3917Q3977 772 4021.0 785.5Q4065 799 4099 834Q4124 859 4147.5 917.5Q4171 976 4176 1018H4252V421H4176Q4172 466 4145.0 530.5Q4118 595 4099 616Q4070 648 4025.0 663.5Q3980 679 3917 679H3776V209Q3776 173 3789.5 147.5Q3803 122 3841 106Q3863 97 3901.5 89.5Q3940 82 3978 78V0H3213V78Q3242 81 3290.0 86.5Q3338 92 3357 100Q3393 114 3407.0 139.0Q3421 164 3421 203V1204Q3421 1238 3408.5 1263.5Q3396 1289 3357 1306Q3329 1318 3283.0 1328.0Q3237 1338 3213 1341V1419H4488Z"/></g></svg>